<svg xmlns="http://www.w3.org/2000/svg" width="36" height="36" viewBox="0 0 36 36"><g><g opacity=".7"><path fill="#fff" d="M14.633 14.625a1.69 1.69 0 0 1-1.693-1.688 1.69 1.69 0 0 1 1.693-1.687 1.69 1.69 0 0 1 1.692 1.688 1.69 1.69 0 0 1-1.692 1.687zm-.005-6.75a5.191 5.191 0 0 0-5.192 5.191c0 2.318 3.393 6.543 4.693 8.076a.65.65 0 0 0 .997 0c1.3-1.533 4.694-5.758 4.694-8.076a5.191 5.191 0 0 0-5.192-5.191zm-.002 16.872A10.118 10.118 0 0 1 4.501 14.624 10.118 10.118 0 0 1 14.626 4.5a10.118 10.118 0 0 1 10.125 10.124 10.118 10.118 0 0 1-10.125 10.123zm20.884 6.378l-7.01-7.01a1.686 1.686 0 0 0-1.196-.492h-1.146a14.552 14.552 0 0 0 3.094-9C29.252 6.546 22.705 0 14.626 0S0 6.545 0 14.624c0 8.078 6.547 14.623 14.626 14.623 3.396 0 6.519-1.153 9.001-3.094V27.3c0 .45.176.878.492 1.195l7.011 7.01c.66.66 1.73.66 2.384 0l1.99-1.99c.66-.661.66-1.73.006-2.39z"/></g></g></svg>